PathFileType	4	(X/Y/Z)	C:\Users\chris\Documents\GitHub\baseballds\vids\pitch5_Sports2D\pitch5_Sports2D_px_person01.trc
DataRate	CameraRate	NumFrames	NumMarkers	Units	OrigDataRate	OrigDataStartFrame	OrigNumFrames
30	30	12	22	m	30	18	149
Frame#	Time	Hip			RHip			RKnee			RAnkle			RBigToe			RSmallToe			RHeel			LHip			LKnee			LAnkle			LBigToe			LSmallToe			LHeel			Neck			Head			Nose			RShoulder			RElbow			RWrist			LShoulder			LElbow			LWrist		
		X1	Y1	Z1	X2	Y2	Z2	X3	Y3	Z3	X4	Y4	Z4	X5	Y5	Z5	X6	Y6	Z6	X7	Y7	Z7	X8	Y8	Z8	X9	Y9	Z9	X10	Y10	Z10	X11	Y11	Z11	X12	Y12	Z12	X13	Y13	Z13	X14	Y14	Z14	X15	Y15	Z15	X16	Y16	Z16	X17	Y17	Z17	X18	Y18	Z18	X19	Y19	Z19	X20	Y20	Z20	X21	Y21	Z21	X22	Y22	Z22
18	0.6	406.64884923881925	534.0794665435855	0.0	382.2101780765141	537.8339276369982	0.0	368.1794420927403	636.5125744129714	0.0	358.49146721660867	729.0113200521702	0.0	376.80121683524715	759.7283397489946	0.0	359.5432940415657	761.2151272405376	0.0	351.6577799792195	743.157195875381	0.0	430.3515678522444	537.1823942014579	0.0	433.44920621712726	632.2185175136511	0.0	434.99973980640567	715.0276873523584	0.0	482.343822514334	736.5525027974535	0.0	478.3872073789993	731.6071879999654	0.0	426.40357197888903	733.3109433279394	0.0	403.35106060502017	377.75057955765635	0.0	434.6951824669174	319.12489003007136	0.0	445.2404210094388	360.1616609174921	0.0	356.535918820173	396.1013323144626	0.0	335.9276809991178	467.7264835296342	0.0	351.9213719313416	522.5936512390399	0.0	429.79835643005396	397.7394198996259	0.0	430.1420035668101	457.34417319277935	0.0	397.3628748652437	501.4882342320053	0.0
19	0.6333333333333333	406.7848515535543	534.4080429965076	0.0	382.4381960990963	537.6887400925458	0.0	368.29710481976304	636.6522233652926	0.0	358.4362111551692	729.4951519094294	0.0	377.0351982087503	760.4943498650349	0.0	359.90219125779106	761.8391294431726	0.0	351.8001315231005	743.6036771533365	0.0	430.3893659736292	537.0271429596396	0.0	433.548755515716	632.433027259737	0.0	435.1586738137678	715.9515307963197	0.0	482.6448243989721	737.6687986715552	0.0	478.9669359704796	732.3971963824574	0.0	426.29649288205627	733.8126069095355	0.0	403.344183616736	379.23834130667404	0.0	435.97232906987824	319.4489579609928	0.0	445.3836248390454	360.9391384819694	0.0	357.17551083434137	396.59037502745707	0.0	336.2255511693216	468.5247530618003	0.0	352.2782577728053	523.4779054372282	0.0	429.9796961216515	398.57109003144217	0.0	430.754485481909	458.128437582744	0.0	406.68272450580923	502.0810038350222	0.0
20	0.6666666666666666	406.7810066670652	534.7234477304606	0.0	382.79664752511843	538.1435703240344	0.0	368.38920979101727	636.9081634369948	0.0	358.6361654962839	730.0416840211718	0.0	377.4776412711076	761.0967456556759	0.0	360.0590157583348	762.4096867984026	0.0	352.0348660715836	744.2587281269936	0.0	430.27925157503154	537.3731040864654	0.0	433.7758632090057	632.8483628659422	0.0	435.255197563239	716.72212358985	0.0	482.97084022578713	738.5641105186813	0.0	479.3567606511401	733.1633372180426	0.0	426.4234279667308	734.3152925638972	0.0	403.4489223048177	380.2602550587111	0.0	436.465492210395	319.96147616292535	0.0	445.46228433368026	361.64002626886247	0.0	357.5855892958538	397.1255774766118	0.0	336.4457629710612	469.07952500212417	0.0	352.6020336638454	524.6832290687357	0.0	430.1516803208517	399.5128362439816	0.0	430.5472876546669	459.0310728734156	0.0	410.96976457115665	502.9454561027075	0.0
21	0.7	406.90784734965166	535.5138825021838	0.0	383.4210104675657	539.7322830816075	0.0	368.8054712570592	637.6114907236769	0.0	358.9128114722785	731.2354045505166	0.0	377.91359734616293	761.8739617455485	0.0	360.37912489973405	763.2104249966739	0.0	352.27297149629976	745.4000979554665	0.0	430.6639885619238	538.6850344638854	0.0	434.20713636249116	633.8074455019494	0.0	435.2702675924175	717.3058098530964	0.0	483.35629056222376	739.0633434179824	0.0	479.41595702373246	733.6527862979727	0.0	426.8583357577417	735.1047652216378	0.0	403.8625748780812	380.63267830617156	0.0	436.0789362790004	320.78216164559825	0.0	446.037761661102	362.42064295506265	0.0	357.7647215281551	397.9525969591523	0.0	336.69416047075924	469.66376390088357	0.0	353.2208813713901	526.2009188160093	0.0	430.5165733394896	400.4776603800516	0.0	429.30386284059426	460.27534777492195	0.0	404.8707463918205	504.38054169132175	0.0
22	0.7333333333333333	407.2841867419234	536.8295179928513	0.0	383.8353779080603	541.4703139301635	0.0	369.49402198464315	639.3968641863294	0.0	359.13855696050183	732.5860896905948	0.0	378.19267751366203	762.8869718109408	0.0	360.8098070014936	764.2184009264707	0.0	352.3947520105851	746.5701228726848	0.0	431.3760495804644	540.2431251184621	0.0	434.59819434573626	635.4787914165789	0.0	435.3786036814958	717.9820754517448	0.0	483.4676003603664	739.5431755260039	0.0	479.39430409328924	734.2062875724104	0.0	427.2311668098425	736.4682867658919	0.0	404.6475272196294	380.884132283383	0.0	435.49568252672	321.5705562874744	0.0	447.0169156338904	363.1187955404243	0.0	358.1977196966763	398.85235044987104	0.0	337.0825182265437	470.44659809601086	0.0	353.7080639048421	527.479743963542	0.0	431.3804227337702	401.2325735701944	0.0	429.20841200075046	461.4261901095294	0.0	399.5955398612491	505.8041915713172	0.0
23	0.7666666666666666	407.80593563379034	538.117824156182	0.0	383.8400817434142	542.3814161983473	0.0	370.0560685207548	641.6388856375763	0.0	359.46688072061073	733.2852234589697	0.0	378.25722509637535	763.9100033929102	0.0	360.84925862000244	765.1803030495082	0.0	352.4945679869469	747.3962537866613	0.0	431.9169615969248	541.2898130487282	0.0	434.8967985114127	637.3076009056571	0.0	435.75131000578966	718.9283207356336	0.0	483.3499462114659	740.4122321887894	0.0	479.5807724399169	735.2502722588306	0.0	427.33892221577275	738.1188616742972	0.0	405.5782345905807	381.4119770547882	0.0	435.35657362109015	322.27242600531906	0.0	447.8820360216163	363.6410321336795	0.0	359.04422752032605	399.4481287859457	0.0	337.5743173279649	471.0752747915653	0.0	353.5102757666983	528.2499652611934	0.0	432.3052710460483	401.8616700163413	0.0	430.81972366845605	461.89017814495014	0.0	404.80125370951384	506.54399340683256	0.0
24	0.8	408.3529928595309	539.1718098229416	0.0	384.0081932645704	543.135056774484	0.0	370.326280187988	643.0303656798288	0.0	359.9414088375908	733.7675473946858	0.0	378.3807986460263	764.887413414463	0.0	360.8321577418326	766.1256299171907	0.0	352.7473711670877	748.2512218895316	0.0	432.37662601041876	542.3236739857049	0.0	435.29750056021845	638.652292402973	0.0	436.3027648662531	719.8878904735351	0.0	483.4766791036351	741.5682380546558	0.0	479.8631943243234	736.5031458409603	0.0	427.316233477006	739.3520278560721	0.0	406.2613782860509	382.2448715556003	0.0	435.6385745844184	323.2487317178716	0.0	448.36216089740657	364.38070444188753	0.0	359.8689603797483	399.88615548980437	0.0	338.18488217882657	471.5201745047548	0.0	353.18034032121886	528.884877841831	0.0	432.6377482765373	402.80731471870695	0.0	431.67238829370217	462.20122855153807	0.0	410.53555231701546	507.2758140727904	0.0
25	0.8333333333333334	408.79513162806904	540.3280386259139	0.0	384.73015827473387	544.3422956174405	0.0	370.5242473870612	643.4502068612846	0.0	360.3157839231847	734.7979352058296	0.0	378.7880590224575	765.8224157464641	0.0	361.5014490929955	767.2134771126508	0.0	353.2713896841149	749.3561155362469	0.0	432.8974389116338	543.8058900823885	0.0	435.7508429756693	639.4229491814838	0.0	436.80010460704295	720.6726690183181	0.0	483.92280581527586	742.7312063968193	0.0	480.0746208975653	737.4377680192259	0.0	427.38758304146205	739.8371032840689	0.0	406.45308897649477	383.5167758953822	0.0	436.10761398806227	324.4636650479449	0.0	448.4038077322309	365.74144672813924	0.0	360.2442781460016	400.7048623972988	0.0	338.8646167186436	472.4884524411732	0.0	353.5656622473512	529.8938791845852	0.0	432.4650264499059	404.17764358771075	0.0	430.61371210739514	463.3487515651963	0.0	405.92684724586417	508.73441319235184	0.0
26	0.8666666666666667	409.0067082138679	541.5520666088727	0.0	385.6143094304361	545.1810093243477	0.0	370.8501988069979	643.8867370220454	0.0	360.44439721491847	735.9049798711209	0.0	379.2972010221537	766.7698699819117	0.0	362.41232896332787	768.4887959637559	0.0	353.9400814677356	750.2135014763805	0.0	433.156561382214	544.9495646112226	0.0	436.04694321746064	639.9165364012083	0.0	437.17196404400556	721.5325642666473	0.0	484.3043439257006	743.9646353167187	0.0	480.33285191998874	738.2023260572238	0.0	427.64335179105484	740.0290079150798	0.0	406.4593577800563	385.1137408522243	0.0	436.7657270646341	325.3286081901023	0.0	448.23461694174307	367.10874948983195	0.0	360.4111280771933	401.9992706647907	0.0	339.36086212766645	474.1970813399844	0.0	354.40545767700854	531.3113838118843	0.0	432.17857594695386	405.504081943984	0.0	428.93668396241253	465.4215549887505	0.0	397.0707332797357	510.52862879567647	0.0
27	0.9	409.13190482725616	542.5944290088808	0.0	386.2083435068156	545.4988885060293	0.0	371.2361049811183	644.9492639150558	0.0	360.4794410678727	736.4896903129263	0.0	379.78426506154995	767.9531205563368	0.0	362.719159774957	769.8574691844689	0.0	354.4257141315065	750.660057745956	0.0	433.1246649880629	545.3906707689549	0.0	436.2639464215554	640.6779258986576	0.0	437.4278018099661	722.7669170083859	0.0	484.38673694519804	745.4409492012973	0.0	480.76126472678584	739.4201480566513	0.0	427.93246099885306	740.768313416485	0.0	406.85297246727805	386.43304670902813	0.0	437.3666698355367	325.8212808584745	0.0	448.3852681055089	367.6572223427891	0.0	361.0925617964066	403.24268682245224	0.0	339.6650497588544	475.7130216394767	0.0	355.0127738467902	532.6055182531085	0.0	431.91428689642	406.5493466152092	0.0	427.4532217245651	467.8078112246376	0.0	392.66481768535465	512.3719338381793	0.0
28	0.9333333333333333	409.5657933621362	543.8224036899508	0.0	386.6073877632115	546.8732968530169	0.0	371.637583174757	646.4706917287044	0.0	360.6963457250672	737.2801171715839	0.0	380.3474428950789	769.5364669628682	0.0	362.83268905520396	771.2684238620095	0.0	354.6264355024793	751.61361047847	0.0	433.48493038393497	546.4385792826649	0.0	436.63931146054654	642.3025142508086	0.0	437.6244286855427	724.3014059569107	0.0	484.4601573302469	746.8855811463721	0.0	481.3171411600473	741.1292417112492	0.0	428.1561180525552	742.4284244861201	0.0	407.71991819238707	387.1752329872397	0.0	437.30037467566615	326.90679365111475	0.0	449.1663004967782	368.2000402887853	0.0	362.4864860304265	404.12367125240985	0.0	340.12331307891935	476.4981992391371	0.0	355.4909348391199	533.5610972061816	0.0	432.06212799929847	407.76290696037006	0.0	426.9144096685566	469.78670312771794	0.0	392.1607781754945	514.2727240323784	0.0
29	0.9666666666666667	410.4976926634061	545.571022848077	0.0	387.0575626796449	549.8104909016745	0.0	372.13357042196475	648.0592044512955	0.0	361.28475413296735	739.170294914665	0.0	381.06583871077606	771.4404187377314	0.0	363.57803673698777	772.888417526758	0.0	354.7671886449899	753.7282025200582	0.0	434.5991830365893	548.9017571427718	0.0	437.16424979183375	644.6119890861241	0.0	438.01748380109143	725.8922373283914	0.0	485.03368577554306	748.0555662977833	0.0	481.9144463775329	742.8577281077683	0.0	428.528093474112	744.4287072573951	0.0	408.6489899503673	387.9642507848437	0.0	436.8422352145562	329.0696397212113	0.0	450.2862527024821	370.09890679264754	0.0	363.71394626152164	405.202909948347	0.0	340.83613743410496	477.3834715926072	0.0	356.3055536233421	534.6033686370165	0.0	433.043801911792	409.5065676659238	0.0	428.5667986562876	471.02964838567806	0.0	393.1928262572972	515.7422596716033	0.0
